osimModel_states
nRows=34
nColumns=17

# SIMM Motion File Header:
name osimModel_states
datacolumns 17
datarows 34
otherdata 1
range 1.49518126 1.63515400
endheader
time	blockToGround_xRotation	blockToGround_yRotation	blockToGround_zRotation	blockToGround_xTranslation	blockToGround_yTranslation	blockToGround_zTranslation	blockToGround_xRotation_u	blockToGround_yRotation_u	blockToGround_zRotation_u	blockToGround_xTranslation_u	blockToGround_yTranslation_u	blockToGround_zTranslation_u	muscle1.activation	muscle1.fiber_length	muscle2.activation	muscle2.fiber_length
      1.49518126	     -0.14332744	      0.00097839	      0.00326961	      0.00000650	      0.00010915	     -0.12204926	      0.99216690	     -0.00209551	     -0.01968493	      0.00000505	     -0.00204858	     -0.02515416	      0.87442958	     -0.02413612	      0.00000000	      0.22049446
      1.49992064	     -0.13842094	      0.00096991	      0.00316999	      0.00000654	      0.00009898	     -0.12216442	      1.06808755	     -0.00159511	     -0.02234875	      0.00000825	     -0.00221910	     -0.02320121	      0.86941726	     -0.02424697	      0.00000000	      0.22074226
      1.50466002	     -0.13319477	      0.00096369	      0.00305803	      0.00000658	      0.00008810	     -0.12227140	      1.15073750	     -0.00115801	     -0.02482174	      0.00001144	     -0.00240163	     -0.02242327	      0.86362399	     -0.02435010	      0.00000000	      0.22062693
      1.50845224	     -0.12879306	      0.00096009	      0.00296040	      0.00000663	      0.00007890	     -0.12235396	      1.16189204	     -0.00086932	     -0.02662977	      0.00001382	     -0.00243197	     -0.02096044	      0.85831071	     -0.02442624	      0.00000000	      0.22091483
      1.51224446	     -0.12435121	      0.00095746	      0.00285654	      0.00000669	      0.00006959	     -0.12243231	      1.18036666	     -0.00065312	     -0.02807180	      0.00001600	     -0.00247601	     -0.02043767	      0.85245725	     -0.02449884	      0.00000000	      0.22088454
      1.51705464	     -0.11870410	      0.00095505	      0.00271821	      0.00000677	      0.00005773	     -0.12252837	      1.15417456	     -0.00049272	     -0.02933141	      0.00001829	     -0.00242638	     -0.01929969	      0.84414610	     -0.02458501	      0.00000000	      0.22107821
      1.52186483	     -0.11323451	      0.00095309	      0.00257569	      0.00000686	      0.00004622	     -0.12261958	      1.13966330	     -0.00046060	     -0.02975713	      0.00001996	     -0.00239992	     -0.01906350	      0.83489289	     -0.02466638	      0.00000000	      0.22098091
      1.52561765	     -0.10907067	      0.00095150	      0.00246418	      0.00000694	      0.00003745	     -0.12268952	      1.07125286	     -0.00051517	     -0.02959322	      0.00002075	     -0.00225807	     -0.01806083	      0.82693544	     -0.02472564	      0.00000000	      0.22123200
      1.52937046	     -0.10513219	      0.00094958	      0.00235428	      0.00000702	      0.00002915	     -0.12275677	      1.03017692	     -0.00062759	     -0.02889071	      0.00002110	     -0.00217327	     -0.01783945	      0.81839766	     -0.02478274	      0.00000000	      0.22120743
      1.53417895	     -0.10035255	      0.00094632	      0.00221872	      0.00000712	      0.00001906	     -0.12284115	      0.94773193	     -0.00083668	     -0.02739965	      0.00002089	     -0.00200095	     -0.01706203	      0.80652798	     -0.02485173	      0.00000000	      0.22137352
      1.53898744	     -0.09594726	      0.00094194	      0.00209172	      0.00000722	      0.00000975	     -0.12292212	      0.91342079	     -0.00107437	     -0.02531184	      0.00002009	     -0.00193050	     -0.01701239	      0.79367328	     -0.02491720	      0.00000000	      0.22128875
      1.54271453	     -0.09266310	      0.00093774	      0.00200062	      0.00000729	      0.00000281	     -0.12298422	      0.84283953	     -0.00126345	     -0.02356019	      0.00001909	     -0.00178219	     -0.01617807	      0.78296701	     -0.02496455	      0.00000000	      0.22151111
      1.54644162	     -0.08957063	      0.00093285	      0.00191629	      0.00000736	     -0.00000373	     -0.12304413	      0.82204162	     -0.00142856	     -0.02167750	      0.00001793	     -0.00173975	     -0.01601633	      0.77167983	     -0.02501008	      0.00000000	      0.22149168
      1.55121727	     -0.08572154	      0.00092575	      0.00181832	      0.00000744	     -0.00001188	     -0.12311940	      0.78190902	     -0.00159836	     -0.01939854	      0.00001626	     -0.00165667	     -0.01532800	      0.75630284	     -0.02506467	      0.00000000	      0.22163638
      1.55599292	     -0.08200003	      0.00091798	      0.00173059	      0.00000752	     -0.00001977	     -0.12319158	      0.80970023	     -0.00169071	     -0.01736542	      0.00001463	     -0.00171881	     -0.01524751	      0.73995948	     -0.02511581	      0.00000000	      0.22156678
      1.55972232	     -0.07900830	      0.00091171	      0.00166807	      0.00000757	     -0.00002613	     -0.12324719	      0.78820972	     -0.00171344	     -0.01622641	      0.00001343	     -0.00167507	     -0.01445174	      0.72647167	     -0.02515241	      0.00000000	      0.22176057
      1.56345172	     -0.07601381	      0.00090544	      0.00160922	      0.00000762	     -0.00003250	     -0.12330063	      0.82394471	     -0.00168413	     -0.01539148	      0.00001244	     -0.00175386	     -0.01425113	      0.71241125	     -0.02518696	      0.00000000	      0.22174447
      1.56816482	     -0.07204548	      0.00089779	      0.00153792	      0.00000767	     -0.00004095	     -0.12336652	      0.85000268	     -0.00158877	     -0.01499539	      0.00001149	     -0.00181268	     -0.01355342	      0.69376752	     -0.02522670	      0.00000000	      0.22187091
      1.57287791	     -0.06790168	      0.00089073	      0.00146684	      0.00000772	     -0.00004980	     -0.12342932	      0.94123485	     -0.00143808	     -0.01523609	      0.00001097	     -0.00201152	     -0.01339228	      0.67420257	     -0.02526260	      0.00000000	      0.22181484
      1.57661980	     -0.06432979	      0.00088569	      0.00140851	      0.00000777	     -0.00005744	     -0.12347819	      0.95923213	     -0.00129099	     -0.01602102	      0.00001085	     -0.00205263	     -0.01261737	      0.65796711	     -0.02528757	      0.00000000	      0.22197912
      1.58036168	     -0.06061482	      0.00088122	      0.00134659	      0.00000781	     -0.00006539	     -0.12352486	      1.03231712	     -0.00113435	     -0.01713069	      0.00001099	     -0.00221217	     -0.01237377	      0.64116607	     -0.02531009	      0.00000000	      0.22196609
      1.58501080	     -0.05565210	      0.00087649	      0.00126273	      0.00000786	     -0.00007603	     -0.12358109	      1.08925374	     -0.00093701	     -0.01903640	      0.00001147	     -0.00233765	     -0.01168138	      0.61945458	     -0.02533383	      0.00000000	      0.22207430
      1.58965992	     -0.05039771	      0.00087264	      0.00116903	      0.00000791	     -0.00008732	     -0.12363432	      1.20243999	     -0.00075923	     -0.02129782	      0.00001217	     -0.00258437	     -0.01147111	      0.59686316	     -0.02535328	      0.00000000	      0.22203045
      1.59341357	     -0.04581665	      0.00087011	      0.00108518	      0.00000796	     -0.00009717	     -0.12367620	      1.22767999	     -0.00062898	     -0.02340970	      0.00001289	     -0.00264111	     -0.01074660	      0.57794021	     -0.02536520	      0.00000000	      0.22216567
      1.59716721	     -0.04107342	      0.00086802	      0.00099326	      0.00000801	     -0.00010738	     -0.12371597	      1.30524860	     -0.00052744	     -0.02557336	      0.00001359	     -0.00281068	     -0.01049028	      0.55845527	     -0.02537425	      0.00000000	      0.22215607
      1.60177256	     -0.03490987	      0.00086590	      0.00086922	      0.00000807	     -0.00012066	     -0.12376306	      1.35570878	     -0.00043335	     -0.02830362	      0.00001444	     -0.00292227	     -0.00984148	      0.53373865	     -0.02538073	      0.00000000	      0.22224648
      1.60637792	     -0.02850023	      0.00086412	      0.00073271	      0.00000814	     -0.00013448	     -0.12380738	      1.45864277	     -0.00038146	     -0.03095366	      0.00001496	     -0.00314721	     -0.00962215	      0.50816983	     -0.02538242	      0.00000000	      0.22221247
      1.61012957	     -0.02298429	      0.00086279	      0.00061264	      0.00000820	     -0.00014639	     -0.12384240	      1.47017528	     -0.00035961	     -0.03304009	      0.00001528	     -0.00317418	     -0.00897028	      0.48667530	     -0.02538061	      0.00000000	      0.22232186
      1.61388123	     -0.01736092	      0.00086149	      0.00048499	      0.00000826	     -0.00015853	     -0.12387553	      1.53275182	     -0.00036123	     -0.03498732	      0.00001510	     -0.00331147	     -0.00872840	      0.46462436	     -0.02537605	      0.00000000	      0.22231577
      1.61848495	     -0.01020711	      0.00085982	      0.00031879	      0.00000832	     -0.00017399	     -0.12391462	      1.55855028	     -0.00038380	     -0.03716698	      0.00001435	     -0.00336958	     -0.00815064	      0.43676789	     -0.02536579	      0.00000000	      0.22238992
      1.62308866	     -0.00294238	      0.00085798	      0.00014312	      0.00000839	     -0.00018971	     -0.12395120	      1.61838160	     -0.00042832	     -0.03913645	      0.00001232	     -0.00350135	     -0.00791474	      0.40806979	     -0.02534998	      0.00000000	      0.22236216
      1.62711044	      0.00356339	      0.00085615	     -0.00001736	      0.00000843	     -0.00020378	     -0.12398195	      1.60028646	     -0.00048092	     -0.04062183	      0.00000962	     -0.00346393	     -0.00724727	      0.38228190	     -0.02533096	      0.00000000	      0.22246806
      1.63113222	      0.01004150	      0.00085407	     -0.00018378	      0.00000846	     -0.00021781	     -0.12401045	      1.62944113	     -0.00055038	     -0.04218533	      0.00000469	     -0.00352889	     -0.00701080	      0.35587374	     -0.02530688	      0.00000000	      0.22243519
      1.63515400	      0.01657556	      0.00085163	     -0.00035677	      0.00000847	     -0.00023196	     -0.12403756	      1.61170991	     -0.00064870	     -0.04387946	     -0.00000284	     -0.00349195	     -0.00639227	      0.32881567	     -0.02527702	      0.00000000	      0.22250960
